<svg xmlns="http://www.w3.org/2000/svg" xmlns:xlink="http://www.w3.org/1999/xlink" viewBox="0 0 177 109" version="1.1" width="100px" height="62px">
    <!-- Generator: Sketch 52.6 (67491) - http://www.bohemiancoding.com/sketch -->
    <title>audi</title>
    <desc>Created with Sketch.</desc>
    <g id="audi" stroke="none" stroke-width="1" fill="none" fill-rule="evenodd" fill-color-id="-1" stroke-color-id="-1" recolor-fill="true" recolor-stroke="true">
        <g fill="#000000" fill-rule="nonzero" id="Shape" fill-color-id="0" stroke-color-id="-1" recolor-fill="true" recolor-stroke="true">
            <path d="M148.588,107.965 L148.588,84.633 L138.959,84.633 L138.959,107.965 L148.588,107.965 Z M97.611,98.277 L97.611,84.986 L88.278,84.986 L88.278,95.146 C88.278,98.099 88.16,98.927 87.983,99.695 C87.333,101.822 85.088,102.765 82.785,102.765 C79.596,102.765 78.119,101.525 77.528,99.576 C77.351,98.928 77.292,98.219 77.233,97.51 C77.174,96.742 77.233,95.914 77.233,95.03 L77.233,84.987 L67.782,84.987 L67.782,98.337 C67.782,101.351 68.787,103.595 70.44,105.13 C73.275,107.907 78.06,108.734 82.49,108.734 C87.865,108.734 92,107.966 94.953,105.072 C96.49,103.594 97.611,101.645 97.611,98.277 Z M51.774,96.623 C51.306116,96.5417028 50.8318818,96.5025459 50.357,96.506 L39.725,96.506 C39.193,96.506 38.602,96.565 38.307,96.623 C38.484,96.445 38.839,96.092 39.193,95.619 L43.977,87.703 C44.627,86.641 44.922,85.932 45.04,85.637 C45.158,85.932 45.453,86.641 46.103,87.764 L51.006,95.739 C51.243,96.092 51.597,96.445 51.774,96.623 Z M69.613,107.965 L48.348,76.069 L36.417,76.069 L39.547,79.79 C39.606,79.849 39.725,79.907 39.842,79.968 C39.724,80.027 39.606,80.085 39.547,80.144 L21,107.965 L31.75,107.965 L34.645,103.18 C34.763,102.944 34.822,102.707 34.822,102.59 C34.94,102.59 35.236,102.707 35.531,102.707 L54.728,102.707 C55.023,102.707 55.259,102.648 55.377,102.59 C55.3661669,102.756103 55.4074159,102.921449 55.495,103.063 L58.508,107.965 L69.613,107.965 Z M136.361,95.975 C136.361,93.375 135.297,90.362 131.99,86.168 L124.015,76.068 L112.91,76.068 L119.23,83.156 C120.294,84.338 121.652,85.4 121.652,85.4 C120.117,84.513 118.168,84.16 116.632,84.16 C112.97,84.16 109.247,84.928 105.941,86.76 C102.396,88.707 100.033,91.957 100.033,96.27 C100.033,99.577 101.51,102.118 103.4,104.067 C107.654,108.319 115.39,108.733 118.226,108.733 C122.419,108.733 128.976,107.788 132.699,104.421 C134.885,102.412 136.361,99.637 136.361,95.975 Z M127.146,96.27 C127.146,98.692 125.55,100.522 123.542,101.526 C121.888,102.413 119.938,102.649 118.226,102.649 C116.514,102.649 114.505,102.294 112.851,101.467 C110.843,100.463 109.306,98.514 109.306,96.387 C109.306,93.848 111.255,91.838 113.56,90.834 C114.978,90.186 116.691,89.949 118.048,89.949 C119.349,89.949 121.239,90.125 122.716,90.717 C125.375,91.838 127.146,93.965 127.146,96.27 Z M145.529,0.023 C138.61294,0.0118345877 131.897282,2.34509483 126.478,6.642 C121.058872,2.34481397 114.343113,0.0115185502 107.427,0.023 C100.511323,0.012297751 93.7961291,2.34551903 88.377,6.642 C82.9583724,2.34460623 76.2428499,0.0112706268 69.327,0.023 C62.4113226,0.012297751 55.6961291,2.34551903 50.277,6.642 C44.857948,2.34537866 38.142704,0.0121397955 31.227,0.023 C14.256,0.023 0.503,13.775 0.503,30.747 C0.503,47.717 14.255,61.471 31.227,61.471 C38.1426642,61.4816233 44.8578323,59.1484108 50.277,54.852 C55.696052,59.1486213 62.411296,61.4818602 69.327,61.471 C76.2428234,61.4825713 82.9582952,59.1492533 88.377,54.852 C93.7961291,59.148481 100.511323,61.4817022 107.427,61.471 C114.3431,61.4824024 121.058834,59.1491158 126.478,54.852 C131.897166,59.1491158 138.6129,61.4824024 145.529,61.471 C162.5,61.471 176.252,47.718 176.252,30.747 C176.252,13.776 162.5,0.023 145.529,0.023 Z M45.25,49.833 C41.335,52.689 36.444,54.432 31.227,54.432 C18.135,54.432 7.541,43.839 7.541,30.747 C7.541,17.655 18.135,7.061 31.227,7.061 C36.444,7.061 41.332,8.805 45.25,11.662 C40.9332447,17.0852356 38.589553,23.8155029 38.604,30.747 C38.607245,37.6758169 40.9489515,44.4007357 45.25,49.833 Z M50.278,44.82 C47.2586701,40.7500934 45.6331396,35.8145828 45.643,30.747 C45.630279,25.6789615 47.2560986,20.7425732 50.278,16.674 C53.299322,20.7428737 54.9250764,25.6790641 54.913,30.747 C54.9225036,35.8145259 53.2970091,40.7499271 50.278,44.82 Z M83.351,49.833 C79.2834534,52.8275877 74.3619743,54.4372339 69.311,54.425 C64.2704957,54.4352508 59.3601108,52.8254494 55.304,49.833 C59.6054623,44.4013487 61.9472346,37.6765933 61.95,30.748 C61.964447,23.8165029 59.6207553,17.0862356 55.304,11.663 C59.3597243,8.66968445 64.270293,7.05947226 69.311,7.07 C74.566,7.07 79.421,8.77 83.351,11.663 C79.0342447,17.0862356 76.690553,23.8165029 76.705,30.748 C76.7079221,37.6765668 79.049677,44.4012722 83.351,49.833 Z M88.377,44.82 C85.3576701,40.7500934 83.7321396,35.8145828 83.742,30.747 C83.7297804,25.6790413 85.3555493,20.742807 88.377,16.674 C91.3990648,20.742549 93.025217,25.6788823 93.013,30.747 C93.0226427,35.8147075 91.3967506,40.7502508 88.377,44.82 Z M121.451,49.833 C117.521,52.727 112.666,54.425 107.412,54.425 C102.158,54.425 97.334,52.724 93.404,49.833 C97.7058801,44.4015783 100.047705,37.6766729 100.05,30.748 C100.064447,23.8165029 97.7207553,17.0862356 93.404,11.663 C97.334,8.771 102.158,7.07 107.412,7.07 C112.666,7.07 117.521,8.77 121.451,11.663 C117.134739,17.0865082 114.79111,23.8165965 114.805,30.748 C114.80847,37.676474 117.150164,44.4010045 121.451,49.833 Z M126.479,44.82 C123.45967,40.7500934 121.83414,35.8145828 121.844,30.747 C121.830849,25.6788931 123.456712,20.7423727 126.479,16.674 C129.500322,20.7428737 131.126076,25.6790641 131.114,30.747 C131.123076,35.8144576 129.497624,40.7497277 126.479,44.82 Z M145.529,54.432 C140.31,54.432 135.42,52.689 131.506,49.833 C135.807045,44.4011192 138.148765,37.6765138 138.152,30.748 C138.16589,23.8165965 135.822261,17.0865082 131.506,11.663 C135.424,8.807 140.311,7.062 145.529,7.062 C158.619,7.062 169.215,17.656 169.215,30.748 C169.215,43.838 158.619,54.432 145.529,54.432 Z" fill-color-id="0" stroke-color-id="-1" recolor-fill="true" recolor-stroke="true" fill="#000000"/>
        </g>
    </g>
</svg>